<svg xmlns="http://www.w3.org/2000/svg" xmlns:xlink="http://www.w3.org/1999/xlink" viewBox="0 0 564.66 509.04"><defs><style>.cls-1{isolation:isolate;}.cls-2{fill:#7048a3;}.cls-3{fill:url(#linear-gradient);}.cls-17,.cls-4{opacity:0.2;}.cls-5{fill:url(#linear-gradient-2);}.cls-6{fill:url(#linear-gradient-3);}.cls-10,.cls-7{opacity:0.1;}.cls-8{fill:#ffb227;}.cls-9{opacity:0.3;}.cls-11{fill:#fff;}.cls-12,.cls-13{fill:#ff58d5;}.cls-13{font-size:10.15px;font-family:Montserrat-Medium, Montserrat Medium;font-weight:500;}.cls-14{fill:#002b66;}.cls-15,.cls-16{fill:#005898;}.cls-16{mix-blend-mode:screen;}</style><linearGradient id="linear-gradient" x1="403.33" y1="309.8" x2="480.11" y2="309.8" gradientUnits="userSpaceOnUse"><stop offset="0" stop-color="#484ba3"/><stop offset="1" stop-color="#6468cc"/></linearGradient><linearGradient id="linear-gradient-2" x1="455.71" y1="292.53" x2="546.68" y2="292.53" xlink:href="#linear-gradient"/><linearGradient id="linear-gradient-3" x1="463" y1="442.21" x2="463" y2="94.12" xlink:href="#linear-gradient"/></defs><title>Recurso 10</title><g class="cls-1"><g id="Capa_2" data-name="Capa 2"><g id="OBJECTS"><path class="cls-2" d="M45.84,485.27A1.84,1.84,0,0,1,44,483.42a1.42,1.42,0,0,1,0-.36,2.8,2.8,0,0,1,.1-.36,3.07,3.07,0,0,1,.17-.31,2.15,2.15,0,0,1,.23-.28,1.63,1.63,0,0,1,.29-.23,1.4,1.4,0,0,1,.32-.18l.34-.1a2.17,2.17,0,0,1,.72,0l.35.1a2.08,2.08,0,0,1,.6.41,1.56,1.56,0,0,1,.23.28,1.34,1.34,0,0,1,.17.31,2.92,2.92,0,0,1,.11.36,2.1,2.1,0,0,1,0,.36,1.85,1.85,0,0,1-.54,1.31A1.89,1.89,0,0,1,45.84,485.27Z"/><path class="cls-2" d="M453.34,481.4a1.85,1.85,0,0,1,.68-2.54h0a1.87,1.87,0,0,1,2.53.69h0a1.86,1.86,0,0,1-.69,2.52h0a1.73,1.73,0,0,1-.92.25h0A1.83,1.83,0,0,1,453.34,481.4ZM38.26,476.62h0a1.86,1.86,0,0,1,.48-2.58h0a1.86,1.86,0,0,1,2.58.49h0a1.86,1.86,0,0,1-.49,2.57h0a1.82,1.82,0,0,1-1,.32h0A1.88,1.88,0,0,1,38.26,476.62Zm423.58-.3a1.86,1.86,0,0,1,.56-2.56h0a1.85,1.85,0,0,1,2.55.56h0a1.85,1.85,0,0,1-.55,2.56h0a1.9,1.9,0,0,1-1,.29h0A1.83,1.83,0,0,1,461.84,476.32Zm8.24-5.51a1.85,1.85,0,0,1,.41-2.59h0a1.85,1.85,0,0,1,2.59.42h0a1.85,1.85,0,0,1-.42,2.58h0a1.8,1.8,0,0,1-1.09.36h0A1.85,1.85,0,0,1,470.08,470.81Zm-437-2.87a1.86,1.86,0,0,1,.78-2.5h0a1.84,1.84,0,0,1,2.5.78h0a1.85,1.85,0,0,1-.77,2.49h0a1.8,1.8,0,0,1-.87.21h0A1.85,1.85,0,0,1,33.05,467.94Zm445-3.07a1.84,1.84,0,0,1,.28-2.6h0a1.86,1.86,0,0,1,2.61.28h0a1.85,1.85,0,0,1-.29,2.6h0a1.82,1.82,0,0,1-1.16.42h0A1.87,1.87,0,0,1,478,464.87ZM28.85,458.75h0a1.86,1.86,0,0,1,1-2.41h0a1.86,1.86,0,0,1,2.4,1.05h0a1.85,1.85,0,0,1-1,2.4h0a2,2,0,0,1-.67.13h0A1.86,1.86,0,0,1,28.85,458.75Zm456.77-.22a1.86,1.86,0,0,1,.15-2.61h0a1.84,1.84,0,0,1,2.62.15h0a1.84,1.84,0,0,1-.15,2.61h0a1.81,1.81,0,0,1-1.23.46h0A1.84,1.84,0,0,1,485.62,458.53Zm7.29-6.72a1.85,1.85,0,0,1,0-2.62h0a1.87,1.87,0,0,1,2.62,0h0a1.86,1.86,0,0,1,0,2.63h0a1.85,1.85,0,0,1-1.31.55h0A1.84,1.84,0,0,1,492.91,451.81ZM25.67,449.16A1.84,1.84,0,0,1,27,446.88h0a1.86,1.86,0,0,1,2.29,1.3h0a1.86,1.86,0,0,1-1.3,2.27h0a1.73,1.73,0,0,1-.49.08h0A1.87,1.87,0,0,1,25.67,449.16Zm474.18-4.43a1.82,1.82,0,0,1-.12-2.61h0a1.83,1.83,0,0,1,2.61-.11h0a1.84,1.84,0,0,1,.13,2.61h0a1.86,1.86,0,0,1-1.37.6h0A1.79,1.79,0,0,1,499.85,444.73ZM23.5,439.29h0A1.83,1.83,0,0,1,25,437.17h0a1.84,1.84,0,0,1,2.13,1.52h0a1.86,1.86,0,0,1-1.53,2.13h0a3,3,0,0,1-.31,0h0A1.88,1.88,0,0,1,23.5,439.29Zm482.92-2a1.87,1.87,0,0,1-.25-2.62h0a1.86,1.86,0,0,1,2.61-.24h0a1.85,1.85,0,0,1,.24,2.61h0a1.81,1.81,0,0,1-1.42.67h0A1.85,1.85,0,0,1,506.42,437.33Zm-484-8.08a1.85,1.85,0,0,1,1.74-1.95h0a1.86,1.86,0,0,1,2,1.74h0A1.85,1.85,0,0,1,24.36,431h-.11A1.86,1.86,0,0,1,22.39,429.25Zm490.23.35a1.85,1.85,0,0,1-.37-2.6h0a1.86,1.86,0,0,1,2.59-.38h0a1.85,1.85,0,0,1,.37,2.59h0a1.81,1.81,0,0,1-1.48.76h0A1.92,1.92,0,0,1,512.62,429.6Zm5.81-8a1.85,1.85,0,0,1-.5-2.57h0a1.86,1.86,0,0,1,2.58-.5h0a1.84,1.84,0,0,1,.49,2.56h0a1.83,1.83,0,0,1-1.53.82h0A1.89,1.89,0,0,1,518.43,421.57Zm-494.34-.48a1.85,1.85,0,0,1-1.77-1.93h0a1.85,1.85,0,0,1,1.93-1.76h0A1.82,1.82,0,0,1,26,419.32h0a1.84,1.84,0,0,1-1.84,1.77h-.08Zm499.75-7.83a1.85,1.85,0,0,1-.63-2.54h0a1.85,1.85,0,0,1,2.54-.63h0a1.84,1.84,0,0,1,.63,2.54h0a1.84,1.84,0,0,1-1.59.9h0A1.76,1.76,0,0,1,523.84,413.26Zm-499-2.05a1.85,1.85,0,0,1-1.55-2.11h0a1.84,1.84,0,0,1,2.11-1.54h0A1.85,1.85,0,0,1,27,409.67h0a1.85,1.85,0,0,1-1.82,1.57h0A.92.92,0,0,1,24.86,411.21Zm504-6.51a1.84,1.84,0,0,1-.75-2.5h0a1.85,1.85,0,0,1,2.51-.76h0a1.86,1.86,0,0,1,.75,2.51h0a1.89,1.89,0,0,1-1.64,1h0A1.86,1.86,0,0,1,528.83,404.7ZM26.69,401.48a1.84,1.84,0,0,1-1.3-2.27h0a1.86,1.86,0,0,1,2.27-1.31h0A1.85,1.85,0,0,1,29,400.17h0a1.84,1.84,0,0,1-1.79,1.37h0A2,2,0,0,1,26.69,401.48Zm506.7-5.57a1.87,1.87,0,0,1-.88-2.47h0a1.87,1.87,0,0,1,2.47-.89h0a1.86,1.86,0,0,1,.88,2.47h0v0h0a1.85,1.85,0,0,1-1.67,1h0A2.07,2.07,0,0,1,533.39,395.91ZM29.6,392a1.84,1.84,0,0,1-1-2.41h0a1.84,1.84,0,0,1,2.4-1h0a1.85,1.85,0,0,1,1,2.4h0a1.87,1.87,0,0,1-1.73,1.18h0A1.88,1.88,0,0,1,29.6,392Zm507.91-5.12a1.84,1.84,0,0,1-1-2.42h0a1.85,1.85,0,0,1,2.42-1h0a1.87,1.87,0,0,1,1,2.42h0a1.87,1.87,0,0,1-1.72,1.14h0A1.72,1.72,0,0,1,537.51,386.89ZM33.59,383a1.87,1.87,0,0,1-.74-2.52h0a1.84,1.84,0,0,1,2.51-.74h0a1.84,1.84,0,0,1,.75,2.5h0a1.85,1.85,0,0,1-1.64,1h0A1.88,1.88,0,0,1,33.59,383Zm507.56-5.27a1.85,1.85,0,0,1-1.12-2.36h0a1.86,1.86,0,0,1,2.37-1.13h0a1.84,1.84,0,0,1,1.12,2.36h0a1.85,1.85,0,0,1-1.74,1.24h0A2,2,0,0,1,541.15,377.68Zm-502.58-3.3a1.86,1.86,0,0,1-.51-2.57h0a1.84,1.84,0,0,1,2.57-.51h0a1.85,1.85,0,0,1,.52,2.57h0a1.88,1.88,0,0,1-1.54.82h0A1.89,1.89,0,0,1,38.57,374.38Zm505.76-6.09a1.84,1.84,0,0,1-1.24-2.31h0a1.84,1.84,0,0,1,2.3-1.23h0a1.82,1.82,0,0,1,1.24,2.29h0a1.84,1.84,0,0,1-1.77,1.33h0A2,2,0,0,1,544.33,368.29Zm-500.06-2a1.87,1.87,0,0,1-.32-2.61h0a1.86,1.86,0,0,1,2.6-.32h0a1.85,1.85,0,0,1,.33,2.6h0a1.83,1.83,0,0,1-1.47.72h0A1.89,1.89,0,0,1,44.27,366.28Zm6.21-7.73a1.86,1.86,0,0,1-.21-2.61h0a1.86,1.86,0,0,1,2.61-.21h0a1.84,1.84,0,0,1,.21,2.61h0a1.86,1.86,0,0,1-1.41.65h0A1.82,1.82,0,0,1,50.48,358.55Zm496.52.21a1.86,1.86,0,0,1-1.35-2.25h0a1.84,1.84,0,0,1,2.23-1.36h0a1.86,1.86,0,0,1,1.37,2.24h0a1.86,1.86,0,0,1-1.8,1.42h0A3.44,3.44,0,0,1,547,358.76ZM57,351.07a1.86,1.86,0,0,1-.15-2.62h0a1.85,1.85,0,0,1,2.62-.15h0a1.85,1.85,0,0,1,.14,2.61h0a1.79,1.79,0,0,1-1.38.63h0A1.9,1.9,0,0,1,57,351.07Zm492.22-2a1.86,1.86,0,0,1-1.49-2.16h0a1.84,1.84,0,0,1,2.16-1.48h0a1.83,1.83,0,0,1,1.48,2.16h0a1.84,1.84,0,0,1-1.82,1.52h0ZM63.57,343.67a1.86,1.86,0,0,1-.16-2.62h0a1.86,1.86,0,0,1,2.62-.16h0a1.85,1.85,0,0,1,.16,2.62h0a1.81,1.81,0,0,1-1.38.63h0A1.86,1.86,0,0,1,63.57,343.67Zm487.26-4.36a1.83,1.83,0,0,1-1.59-2.07h0a1.84,1.84,0,0,1,2.07-1.6h0a1.86,1.86,0,0,1,1.6,2.08h0a1.86,1.86,0,0,1-1.83,1.6h-.25ZM70.1,336.21a1.84,1.84,0,0,1-.23-2.6h0a1.86,1.86,0,0,1,2.62-.23h0a1.86,1.86,0,0,1,.22,2.61h0a1.86,1.86,0,0,1-1.42.65h0A1.8,1.8,0,0,1,70.1,336.21Zm481.84-6.74a1.83,1.83,0,0,1-1.7-2h0a1.83,1.83,0,0,1,2-1.7h0a1.85,1.85,0,0,1,1.71,2h0a1.85,1.85,0,0,1-1.84,1.7h-.15Zm-475.57-.94a1.84,1.84,0,0,1-.36-2.59h0a1.84,1.84,0,0,1,2.59-.36h0a1.85,1.85,0,0,1,.36,2.59h0a1.83,1.83,0,0,1-1.48.74h0A1.78,1.78,0,0,1,76.37,328.53Zm5.77-8a1.84,1.84,0,0,1-.55-2.55h0a1.83,1.83,0,0,1,2.55-.56h0a1.83,1.83,0,0,1,.56,2.56h0a1.85,1.85,0,0,1-1.56.85h0A1.85,1.85,0,0,1,82.14,320.48Zm470.38-.9a1.85,1.85,0,0,1-1.81-1.9h0a1.84,1.84,0,0,1,1.89-1.8h0a1.84,1.84,0,0,1,1.81,1.88h0a1.85,1.85,0,0,1-1.85,1.82h0ZM87.27,312a1.85,1.85,0,0,1-.8-2.5h0a1.87,1.87,0,0,1,2.5-.8h0a1.87,1.87,0,0,1,.79,2.51h0a1.85,1.85,0,0,1-1.64,1h0A1.7,1.7,0,0,1,87.27,312Zm463.39-4.13h0a1.87,1.87,0,0,1,1.79-1.91h0a1.86,1.86,0,0,1,1.91,1.8h0a1.83,1.83,0,0,1-1.79,1.9h-.06A1.85,1.85,0,0,1,550.66,307.87ZM91.52,303.05a1.85,1.85,0,0,1-1.09-2.39h0a1.86,1.86,0,0,1,2.39-1.08h0A1.86,1.86,0,0,1,93.9,302h0a1.87,1.87,0,0,1-1.74,1.2h0A1.81,1.81,0,0,1,91.52,303.05Zm458.58-5a1.85,1.85,0,0,1,1.7-2h0a1.86,1.86,0,0,1,2,1.69h0a1.86,1.86,0,0,1-1.7,2h-.16A1.84,1.84,0,0,1,550.1,298.07ZM94.6,293.64a1.85,1.85,0,0,1-1.41-2.21h0a1.84,1.84,0,0,1,2.2-1.41h0a1.85,1.85,0,0,1,1.42,2.2h0A1.86,1.86,0,0,1,95,293.67h0ZM549,288.32a1.85,1.85,0,0,1,1.58-2.08h0a1.86,1.86,0,0,1,2.09,1.58h0a1.86,1.86,0,0,1-1.59,2.09h-.25A1.85,1.85,0,0,1,549,288.32ZM96.21,283.87a1.86,1.86,0,0,1-1.78-1.93h0a1.86,1.86,0,0,1,1.93-1.77h0a1.83,1.83,0,0,1,1.77,1.92h0a1.84,1.84,0,0,1-1.85,1.78h-.07Zm451.28-5.23a1.84,1.84,0,0,1,1.47-2.17h0a1.85,1.85,0,0,1,2.16,1.47h0a1.86,1.86,0,0,1-1.49,2.18h0l-.33,0h0A1.84,1.84,0,0,1,547.49,278.64ZM93.91,272.42a1.85,1.85,0,0,1,1.54-2.11h0a1.86,1.86,0,0,1,2.13,1.55h0A1.85,1.85,0,0,1,96,274h0l-.28,0h0A1.85,1.85,0,0,1,93.91,272.42ZM545.44,269a1.86,1.86,0,0,1,1.37-2.24h0a1.86,1.86,0,0,1,2.23,1.37h0a1.85,1.85,0,0,1-1.37,2.24h0a1.67,1.67,0,0,1-.43.05h0A1.85,1.85,0,0,1,545.44,269ZM91.61,263.14a1.85,1.85,0,0,1,1.15-2.35h0a1.87,1.87,0,0,1,2.36,1.15h0A1.87,1.87,0,0,1,94,264.3h0a2,2,0,0,1-.59.1h0A1.87,1.87,0,0,1,91.61,263.14Zm451.31-3.59h0a1.85,1.85,0,0,1,1.26-2.3h0a1.82,1.82,0,0,1,2.29,1.25h0a1.86,1.86,0,0,1-1.26,2.3h0a1.79,1.79,0,0,1-.51.07h0A1.85,1.85,0,0,1,542.92,259.55ZM87.81,254.29a1.86,1.86,0,0,1,.8-2.5h0a1.87,1.87,0,0,1,2.5.82h0a1.83,1.83,0,0,1-.8,2.48h0a1.74,1.74,0,0,1-.84.21h0A1.86,1.86,0,0,1,87.81,254.29Zm452.12-4.1a1.86,1.86,0,0,1,1.15-2.36h0a1.86,1.86,0,0,1,2.36,1.15h0a1.87,1.87,0,0,1-1.15,2.36h0a2.15,2.15,0,0,1-.61.09h0A1.87,1.87,0,0,1,539.93,250.19Zm-457-4.29a1.84,1.84,0,0,1,.54-2.55h0a1.84,1.84,0,0,1,2.57.54h0a1.85,1.85,0,0,1-.54,2.56h0a1.79,1.79,0,0,1-1,.29h0A1.85,1.85,0,0,1,82.91,245.9ZM536.5,241a1.84,1.84,0,0,1,1-2.41h0a1.86,1.86,0,0,1,2.41,1h0a1.86,1.86,0,0,1-1,2.42h0a2.11,2.11,0,0,1-.7.13h0A1.82,1.82,0,0,1,536.5,241ZM77.3,237.88a1.85,1.85,0,0,1,.37-2.58h0a1.84,1.84,0,0,1,2.6.38h0a1.83,1.83,0,0,1-.39,2.58h0a1.77,1.77,0,0,1-1.09.37h0A1.84,1.84,0,0,1,77.3,237.88ZM532.61,232a1.84,1.84,0,0,1,.9-2.46h0a1.85,1.85,0,0,1,2.46.9h0a1.85,1.85,0,0,1-.91,2.46h0a1.91,1.91,0,0,1-.77.17h0A1.86,1.86,0,0,1,532.61,232ZM71.28,230.08h0a1.84,1.84,0,0,1,.31-2.59h0a1.83,1.83,0,0,1,2.59.3h0a1.84,1.84,0,0,1-.3,2.6h0a1.85,1.85,0,0,1-1.15.4h0A1.85,1.85,0,0,1,71.28,230.08Zm457-6.91a1.84,1.84,0,0,1,.78-2.49h0a1.84,1.84,0,0,1,2.5.77h0a1.86,1.86,0,0,1-.78,2.51h0a1.87,1.87,0,0,1-.85.21h0A1.86,1.86,0,0,1,528.27,223.17Zm-463.15-.86h0a1.85,1.85,0,0,1,.31-2.6h0A1.84,1.84,0,0,1,68,220h0a1.83,1.83,0,0,1-.3,2.59h0a1.8,1.8,0,0,1-1.15.41h0A1.87,1.87,0,0,1,65.12,222.31Zm458.39-7.72a1.84,1.84,0,0,1,.65-2.53h0a1.84,1.84,0,0,1,2.53.65h0a1.84,1.84,0,0,1-.65,2.53h0a1.81,1.81,0,0,1-.94.26h0A1.83,1.83,0,0,1,523.51,214.59Zm-464.46-.2a1.85,1.85,0,0,1,.4-2.59h0a1.85,1.85,0,0,1,2.59.39h0a1.86,1.86,0,0,1-.39,2.6h0a1.89,1.89,0,0,1-1.1.35h0A1.83,1.83,0,0,1,59.05,214.39Zm459.27-8.14a1.83,1.83,0,0,1,.52-2.55h0a1.84,1.84,0,0,1,2.57.52h0a1.84,1.84,0,0,1-.53,2.57h0a1.8,1.8,0,0,1-1,.3h0A1.82,1.82,0,0,1,518.32,206.25Zm-465-.12a1.85,1.85,0,0,1,.57-2.56h0a1.86,1.86,0,0,1,2.56.57h0a1.86,1.86,0,0,1-.57,2.56h0a1.82,1.82,0,0,1-1,.28h0A1.84,1.84,0,0,1,53.36,206.13Zm459.36-7.93a1.84,1.84,0,0,1,.39-2.59h0a1.85,1.85,0,0,1,2.58.4h0a1.85,1.85,0,0,1-.39,2.59h0a1.78,1.78,0,0,1-1.09.36h0A1.8,1.8,0,0,1,512.72,198.2Zm-464.38-.79a1.85,1.85,0,0,1,.79-2.5h0a1.85,1.85,0,0,1,2.49.79h0a1.85,1.85,0,0,1-.79,2.49h0a1.75,1.75,0,0,1-.85.21h0A1.83,1.83,0,0,1,48.34,197.41Zm458.36-7a1.86,1.86,0,0,1,.26-2.61h0a1.86,1.86,0,0,1,2.61.26h0a1.86,1.86,0,0,1-.26,2.61h0a1.89,1.89,0,0,1-1.17.42h0A1.88,1.88,0,0,1,506.7,190.45ZM44.06,188.3a1.86,1.86,0,0,1,1-2.43h0a1.84,1.84,0,0,1,2.42,1h0a1.84,1.84,0,0,1-1,2.42h0a1.73,1.73,0,0,1-.7.15h0A1.88,1.88,0,0,1,44.06,188.3ZM500.29,183h0a1.85,1.85,0,0,1,.13-2.62h0a1.86,1.86,0,0,1,2.62.12h0a1.85,1.85,0,0,1-.13,2.62h0a1.87,1.87,0,0,1-1.25.48h0A1.88,1.88,0,0,1,500.29,183ZM40.58,178.85a1.84,1.84,0,0,1,1.19-2.33h0a1.85,1.85,0,0,1,2.33,1.2h0a1.86,1.86,0,0,1-1.2,2.33h0a1.84,1.84,0,0,1-.57.09h0A1.83,1.83,0,0,1,40.58,178.85Zm452.92-2.91a1.85,1.85,0,0,1,0-2.62h0a1.85,1.85,0,0,1,2.62,0h0a1.84,1.84,0,0,1,0,2.62h0a1.82,1.82,0,0,1-1.31.55h0A1.83,1.83,0,0,1,493.5,175.94ZM37.88,169.16a1.84,1.84,0,0,1,1.38-2.22h0a1.83,1.83,0,0,1,2.22,1.38h0a1.84,1.84,0,0,1-1.38,2.22h0a1.51,1.51,0,0,1-.42.05h0A1.83,1.83,0,0,1,37.88,169.16Zm448.46.08a1.86,1.86,0,0,1-.16-2.62h0a1.85,1.85,0,0,1,2.62-.16h0a1.86,1.86,0,0,1,.16,2.62h0a1.84,1.84,0,0,1-1.38.63h0A1.93,1.93,0,0,1,486.34,169.24Zm-7.48-6.43a1.84,1.84,0,0,1-.24-2.6h0a1.84,1.84,0,0,1,2.61-.22h0a1.83,1.83,0,0,1,.23,2.6h0a1.85,1.85,0,0,1-1.42.67h0A1.78,1.78,0,0,1,478.86,162.81ZM36,159.28a1.82,1.82,0,0,1,1.55-2.09h0a1.86,1.86,0,0,1,2.12,1.55h0a1.87,1.87,0,0,1-1.57,2.1h0a1.27,1.27,0,0,1-.27,0h0A1.83,1.83,0,0,1,36,159.28Zm435.27-2.86h0a1.87,1.87,0,0,1-.2-2.62h0a1.87,1.87,0,0,1,2.62-.2h0a1.86,1.86,0,0,1,.2,2.62h0a1.88,1.88,0,0,1-1.41.64h0A1.82,1.82,0,0,1,471.26,156.42ZM34.91,149.28h0a1.84,1.84,0,0,1,1.73-2h0a1.84,1.84,0,0,1,2,1.73h0a1.85,1.85,0,0,1-1.73,2h-.13A1.85,1.85,0,0,1,34.91,149.28Zm428.88.48a1.85,1.85,0,0,1-.07-2.61h0a1.87,1.87,0,0,1,2.62-.09h0a1.86,1.86,0,0,1,.07,2.63h0a1.85,1.85,0,0,1-1.34.58h0A1.86,1.86,0,0,1,463.79,149.76Zm-7.05-7.17a1.86,1.86,0,0,1,.14-2.62h0a1.85,1.85,0,0,1,2.62.15h0a1.86,1.86,0,0,1-.14,2.62h0a1.9,1.9,0,0,1-1.23.47h0A1.84,1.84,0,0,1,456.74,142.59ZM36.49,141.11a1.85,1.85,0,0,1-1.82-1.88h0a1.87,1.87,0,0,1,1.89-1.83h0a1.85,1.85,0,0,1,1.81,1.89h0a1.84,1.84,0,0,1-1.85,1.82h0Zm414-6.48h0a1.84,1.84,0,0,1,.49-2.57h0a1.85,1.85,0,0,1,2.57.48h0a1.86,1.86,0,0,1-.49,2.58h0a1.87,1.87,0,0,1-1,.32h0A1.84,1.84,0,0,1,450.46,134.63ZM36.94,131.22a1.86,1.86,0,0,1-1.66-2h0a1.87,1.87,0,0,1,2-1.65h0a1.84,1.84,0,0,1,1.64,2h0a1.85,1.85,0,0,1-1.84,1.67h-.18Zm408.53-5.52h0a1.86,1.86,0,0,1,.95-2.45h0a1.88,1.88,0,0,1,2.45,1h0a1.88,1.88,0,0,1-.95,2.45h0a1.83,1.83,0,0,1-.74.16h0A1.88,1.88,0,0,1,445.47,125.7ZM38.24,121.39a1.86,1.86,0,0,1-1.45-2.19h0A1.86,1.86,0,0,1,39,117.76h0a1.85,1.85,0,0,1,1.44,2.18h0a1.86,1.86,0,0,1-1.81,1.49h0A2.21,2.21,0,0,1,38.24,121.39Zm151.07-5.3a1.85,1.85,0,0,1,1.76-1.94h0a1.84,1.84,0,0,1,1.93,1.77h0a1.86,1.86,0,0,1-1.77,1.94h-.07A1.85,1.85,0,0,1,189.31,116.09Zm253.05-.2h0a1.87,1.87,0,0,1,1.46-2.18h0a1.87,1.87,0,0,1,2.18,1.46h0a1.85,1.85,0,0,1-1.45,2.17h0a2.45,2.45,0,0,1-.38,0h0A1.86,1.86,0,0,1,442.36,115.89ZM181,117.29a1.86,1.86,0,0,1-1.55-2.12h0a1.86,1.86,0,0,1,2.12-1.55h0a1.85,1.85,0,0,1,1.54,2.11h0a1.86,1.86,0,0,1-1.83,1.57H181ZM199.14,115a1.84,1.84,0,0,1,1.33-2.25h0a1.85,1.85,0,0,1,2.26,1.34h0a1.85,1.85,0,0,1-1.33,2.24h0a1.91,1.91,0,0,1-.47.07h0A1.85,1.85,0,0,1,199.14,115Zm-28.06-.11a1.85,1.85,0,0,1-1.17-2.33h0a1.84,1.84,0,0,1,2.33-1.19h0a1.85,1.85,0,0,1,1.19,2.33h0a1.87,1.87,0,0,1-1.77,1.29h0A2.08,2.08,0,0,1,171.08,114.87Zm37.49-2.9a1.85,1.85,0,0,1,.91-2.46h0a1.84,1.84,0,0,1,2.45.91h0a1.85,1.85,0,0,1-.92,2.46h0a1.82,1.82,0,0,1-.76.16h0A1.84,1.84,0,0,1,208.57,112Zm-168-.21a1.85,1.85,0,0,1-1.19-2.34h0a1.86,1.86,0,0,1,2.35-1.18h0a1.85,1.85,0,0,1,1.17,2.33h0a1.84,1.84,0,0,1-1.75,1.29h0A1.91,1.91,0,0,1,40.56,111.76Zm121.13-.66a1.86,1.86,0,0,1-.89-2.47h0a1.83,1.83,0,0,1,2.45-.88h0a1.83,1.83,0,0,1,.89,2.46h0a1.83,1.83,0,0,1-1.68,1.07h0A1.93,1.93,0,0,1,161.69,111.1Zm55.67-3.69a1.84,1.84,0,0,1,.55-2.55h0a1.85,1.85,0,0,1,2.56.54h0a1.86,1.86,0,0,1-.55,2.57h0a1.93,1.93,0,0,1-1,.29h0A1.83,1.83,0,0,1,217.36,107.41Zm224-1.71a1.85,1.85,0,0,1,1.84-1.87h0a1.85,1.85,0,0,1,1.87,1.84h0a1.86,1.86,0,0,1-1.85,1.86h0A1.85,1.85,0,0,1,441.38,105.7Zm-288.61.72a1.84,1.84,0,0,1-.68-2.53h0a1.83,1.83,0,0,1,2.52-.68h0a1.85,1.85,0,0,1,.69,2.53h0a1.83,1.83,0,0,1-1.6.93h0A2,2,0,0,1,152.77,106.42ZM44,102.47a1.85,1.85,0,0,1-.87-2.47h0a1.84,1.84,0,0,1,2.47-.87h0a1.85,1.85,0,0,1,.87,2.47h0a1.86,1.86,0,0,1-1.68,1.05h0A1.69,1.69,0,0,1,44,102.47Zm181.45-.75a1.87,1.87,0,0,1,.25-2.62h0a1.85,1.85,0,0,1,2.6.25h0a1.84,1.84,0,0,1-.23,2.6h0a1.85,1.85,0,0,1-1.19.44h0A1.9,1.9,0,0,1,225.46,101.72Zm-81.22-.52h0a1.85,1.85,0,0,1-.57-2.55h0a1.85,1.85,0,0,1,2.57-.56h0a1.87,1.87,0,0,1,.56,2.56h0a1.87,1.87,0,0,1-1.56.85h0A1.75,1.75,0,0,1,144.24,101.2Zm299.39-3.57a1.85,1.85,0,0,1-1.62-2h0A1.85,1.85,0,0,1,444.08,94h0a1.83,1.83,0,0,1,1.61,2h0a1.84,1.84,0,0,1-1.82,1.64h0Zm-307.7-1.9h0a1.86,1.86,0,0,1-.51-2.57h0a1.85,1.85,0,0,1,2.57-.5h0a1.84,1.84,0,0,1,.51,2.56h0a1.85,1.85,0,0,1-1.55.83h0A1.8,1.8,0,0,1,135.93,95.73Zm97-.57a1.87,1.87,0,0,1,0-2.63h0a1.86,1.86,0,0,1,2.62,0h0a1.85,1.85,0,0,1,0,2.62h0a1.86,1.86,0,0,1-1.32.54h0A1.78,1.78,0,0,1,232.9,95.16ZM48.69,93.73a1.85,1.85,0,0,1-.48-2.57h0a1.85,1.85,0,0,1,2.58-.48h0a1.86,1.86,0,0,1,.47,2.58h0a1.86,1.86,0,0,1-1.53.8h0A1.85,1.85,0,0,1,48.69,93.73Zm79-3.43a1.86,1.86,0,0,1-.56-2.56h0a1.86,1.86,0,0,1,2.56-.57h0a1.85,1.85,0,0,1,.56,2.56h0a1.82,1.82,0,0,1-1.56.85h0A1.83,1.83,0,0,1,127.69,90.3Zm112-2.34a1.83,1.83,0,0,1-.18-2.6h0a1.84,1.84,0,0,1,2.61-.18h0a1.85,1.85,0,0,1,.18,2.62h0a1.88,1.88,0,0,1-1.41.64h0A1.81,1.81,0,0,1,239.71,88Zm205.34-.13a1.85,1.85,0,0,1-1.49-2.15h0a1.84,1.84,0,0,1,2.15-1.49h0a1.83,1.83,0,0,1,1.49,2.14h0a1.85,1.85,0,0,1-1.82,1.52h0A1.83,1.83,0,0,1,445.05,87.83ZM54.74,85.9a1.86,1.86,0,0,1,0-2.62h0a1.86,1.86,0,0,1,2.62,0h0a1.86,1.86,0,0,1,0,2.61h0a1.87,1.87,0,0,1-1.3.54h0A1.89,1.89,0,0,1,54.74,85.9Zm64.54-.63h0a1.86,1.86,0,0,1-.71-2.52h0a1.84,1.84,0,0,1,2.52-.72h0a1.83,1.83,0,0,1,.71,2.5h0a1.82,1.82,0,0,1-1.61,1h0A2,2,0,0,1,119.28,85.27Zm-8.7-4.39a1.85,1.85,0,0,1-.93-2.45h0a1.85,1.85,0,0,1,2.45-.94h0A1.85,1.85,0,0,1,113,80h0A1.85,1.85,0,0,1,111.33,81h0A1.88,1.88,0,0,1,110.58,80.88Zm135.53-.47a1.88,1.88,0,0,1-.29-2.62h0a1.87,1.87,0,0,1,2.61-.27h0a1.84,1.84,0,0,1,.28,2.6h0a1.84,1.84,0,0,1-1.44.7h0A1.87,1.87,0,0,1,246.11,80.41Zm-183.85-1a1.85,1.85,0,0,1,.62-2.55h0a1.87,1.87,0,0,1,2.55.62h0a1.85,1.85,0,0,1-.62,2.54h0a1.84,1.84,0,0,1-1,.28h0A1.83,1.83,0,0,1,62.26,79.46Zm384.59-1.37a1.86,1.86,0,0,1-1.5-2.15h0a1.87,1.87,0,0,1,2.15-1.51h0a1.86,1.86,0,0,1,1.5,2.15h0a1.85,1.85,0,0,1-1.82,1.53h0Zm-345.31-.71a1.87,1.87,0,0,1-1.21-2.33h0a1.86,1.86,0,0,1,2.34-1.2h0a1.84,1.84,0,0,1,1.19,2.32h0a1.84,1.84,0,0,1-1.76,1.3h0A1.82,1.82,0,0,1,101.54,77.38ZM71.09,75a1.84,1.84,0,0,1,1.24-2.31h0a1.86,1.86,0,0,1,2.31,1.24h0a1.84,1.84,0,0,1-1.25,2.3h0a1.41,1.41,0,0,1-.53.09h0A1.86,1.86,0,0,1,71.09,75Zm21.1.15A1.86,1.86,0,0,1,90.64,73h0a1.84,1.84,0,0,1,2.11-1.55h0a1.88,1.88,0,0,1,1.56,2.12h0a1.86,1.86,0,0,1-1.83,1.57h0ZM80.75,72.88a1.84,1.84,0,0,1,1.75-1.94h0a1.85,1.85,0,0,1,2,1.75h0a1.86,1.86,0,0,1-1.75,1.94h-.1A1.85,1.85,0,0,1,80.75,72.88Zm171.53-.23a1.85,1.85,0,0,1-.3-2.6h0a1.86,1.86,0,0,1,2.6-.31h0a1.86,1.86,0,0,1,.31,2.6h0a1.86,1.86,0,0,1-1.46.71h0A1.87,1.87,0,0,1,252.28,72.65Zm196.17-4.36a1.84,1.84,0,0,1-1.63-2.05h0a1.85,1.85,0,0,1,2.05-1.62h0a1.85,1.85,0,0,1,1.63,2.06h0a1.83,1.83,0,0,1-1.83,1.63h0A.78.78,0,0,1,448.45,68.29Zm-190-3.39a1.86,1.86,0,0,1-.26-2.61h0A1.85,1.85,0,0,1,260.8,62h0a1.86,1.86,0,0,1,.26,2.61h0a1.88,1.88,0,0,1-1.43.68h0A1.93,1.93,0,0,1,258.45,64.9Zm188.91-8.3a1.86,1.86,0,0,1,1.83-1.88h0a1.85,1.85,0,0,1,1.87,1.83h0a1.84,1.84,0,0,1-1.82,1.88h0A1.85,1.85,0,0,1,447.36,56.6Zm-182.53.71a1.84,1.84,0,0,1-.14-2.62h0a1.84,1.84,0,0,1,2.61-.14h0a1.86,1.86,0,0,1,.14,2.62h0a1.83,1.83,0,0,1-1.38.6h0A1.78,1.78,0,0,1,264.83,57.31Zm6.76-7.24a1.85,1.85,0,0,1,0-2.62h0a1.84,1.84,0,0,1,2.61,0h0a1.85,1.85,0,0,1,0,2.62h0a1.85,1.85,0,0,1-1.3.52h0A1.86,1.86,0,0,1,271.59,50.07Zm174.78-3a1.85,1.85,0,0,1,1.43-2.2h0a1.85,1.85,0,0,1,2.2,1.43h0a1.86,1.86,0,0,1-1.43,2.2h0a1.76,1.76,0,0,1-.38,0h0A1.87,1.87,0,0,1,446.37,47.12ZM278.78,43.25a1.85,1.85,0,0,1,.18-2.61h0a1.85,1.85,0,0,1,2.62.18h0a1.87,1.87,0,0,1-.18,2.62h0a1.84,1.84,0,0,1-1.21.44h0A1.87,1.87,0,0,1,278.78,43.25Zm164.65-5.16h0a1.84,1.84,0,0,1,.94-2.44h0a1.86,1.86,0,0,1,2.45.92h0a1.85,1.85,0,0,1-.94,2.45h0a1.86,1.86,0,0,1-.75.17h0A1.88,1.88,0,0,1,443.43,38.09ZM286.37,36.88a1.84,1.84,0,0,1,.35-2.59h0a1.85,1.85,0,0,1,2.59.33h0a1.87,1.87,0,0,1-.33,2.61h0a1.86,1.86,0,0,1-1.14.38h0A1.86,1.86,0,0,1,286.37,36.88Zm8-5.89a1.86,1.86,0,0,1,.49-2.58h0a1.84,1.84,0,0,1,2.57.5h0a1.83,1.83,0,0,1-.48,2.56h0a1.79,1.79,0,0,1-1.05.33h0A1.84,1.84,0,0,1,294.34,31Zm144.35-1.17a1.87,1.87,0,0,1,.45-2.58h0a1.85,1.85,0,0,1,2.58.44h0a1.85,1.85,0,0,1-.45,2.58h0a1.81,1.81,0,0,1-1.06.34h0A1.87,1.87,0,0,1,438.69,29.82ZM302.63,25.57a1.87,1.87,0,0,1,.65-2.54h0a1.86,1.86,0,0,1,2.54.64h0a1.86,1.86,0,0,1-.64,2.54h0a1.84,1.84,0,0,1-.95.26h0A1.87,1.87,0,0,1,302.63,25.57Zm129.86-3.05a1.85,1.85,0,0,1,0-2.62h0a1.87,1.87,0,0,1,2.62,0h0a1.84,1.84,0,0,1,0,2.62h0a1.81,1.81,0,0,1-1.31.54h0A1.85,1.85,0,0,1,432.49,22.52ZM311.24,20.66a1.87,1.87,0,0,1,.79-2.51h0a1.85,1.85,0,0,1,2.5.78h0a1.87,1.87,0,0,1-.8,2.51h0a2,2,0,0,1-.85.21h0A1.87,1.87,0,0,1,311.24,20.66Zm8.88-4.41a1.85,1.85,0,0,1,.94-2.45h0a1.88,1.88,0,0,1,2.44.94h0a1.85,1.85,0,0,1-.94,2.45h0a1.78,1.78,0,0,1-.75.16h0A1.86,1.86,0,0,1,320.12,16.25Zm105,.09h0a1.86,1.86,0,0,1-.44-2.58h0a1.87,1.87,0,0,1,2.6-.44h0a1.85,1.85,0,0,1,.42,2.58h0a1.84,1.84,0,0,1-1.51.78h0A1.86,1.86,0,0,1,425.15,16.34Zm-95.91-3.95A1.87,1.87,0,0,1,330.32,10h0a1.86,1.86,0,0,1,2.39,1.09h0a1.85,1.85,0,0,1-1.08,2.38h0a1.87,1.87,0,0,1-.66.11h0A1.86,1.86,0,0,1,329.24,12.39Zm87.68-1h0a1.85,1.85,0,0,1-.82-2.48h0a1.86,1.86,0,0,1,2.49-.83h0a1.85,1.85,0,0,1,.82,2.48h0a1.85,1.85,0,0,1-1.66,1h0A1.75,1.75,0,0,1,416.92,11.36ZM338.58,9.08a1.87,1.87,0,0,1,1.22-2.33h0A1.87,1.87,0,0,1,342.12,8h0a1.86,1.86,0,0,1-1.22,2.32h0a1.81,1.81,0,0,1-.56.08h0A1.84,1.84,0,0,1,338.58,9.08ZM408,7.69a1.84,1.84,0,0,1-1.18-2.33h0a1.85,1.85,0,0,1,2.34-1.19h0a1.87,1.87,0,0,1,1.17,2.35h0a1.84,1.84,0,0,1-1.75,1.27h0A2,2,0,0,1,408,7.69ZM348.1,6.33a1.84,1.84,0,0,1,1.37-2.23h0a1.83,1.83,0,0,1,2.23,1.36h0a1.85,1.85,0,0,1-1.37,2.23h0a1.54,1.54,0,0,1-.43,0h0A1.86,1.86,0,0,1,348.1,6.33Zm9.68-2.16A1.83,1.83,0,0,1,359.27,2h0a1.85,1.85,0,0,1,2.15,1.5h0a1.86,1.86,0,0,1-1.51,2.15h0l-.32,0h0A1.83,1.83,0,0,1,357.78,4.17Zm40.88,1.1a1.85,1.85,0,0,1-1.47-2.17h0a1.87,1.87,0,0,1,2.18-1.47h0a1.86,1.86,0,0,1,1.46,2.17h0A1.86,1.86,0,0,1,399,5.31h0A1.45,1.45,0,0,1,398.66,5.27Zm-31.1-2.62a1.85,1.85,0,0,1,1.65-2h0a1.85,1.85,0,0,1,2,1.64h0a1.86,1.86,0,0,1-1.65,2h-.2A1.87,1.87,0,0,1,367.56,2.65ZM389.05,4h0a1.84,1.84,0,0,1-1.7-2h0a1.85,1.85,0,0,1,2-1.69h0a1.83,1.83,0,0,1,1.7,2h0A1.85,1.85,0,0,1,389.19,4h-.14Zm-11.61-2.1A1.85,1.85,0,0,1,379.26,0h0a1.84,1.84,0,0,1,1.88,1.82h0a1.84,1.84,0,0,1-1.82,1.88h0A1.85,1.85,0,0,1,377.44,1.89Z"/><path class="cls-2" d="M446,487.12a2,2,0,0,1-.7-.13,2,2,0,0,1-.61-.41,1.86,1.86,0,0,1,0-2.62,1.92,1.92,0,0,1,2.62,0,1.86,1.86,0,0,1,0,2.62A1.85,1.85,0,0,1,446,487.12Z"/><path class="cls-3" d="M464.89,274.66c-20.33-19.58-15.76-54-31.08-77.7-2.75-4.25-6.26-8.21-10.83-10.38s-10.38-2.26-14.45.76c-4.89,3.62-6.07,10.66-4.63,16.57s5,11.06,8,16.31c10.95,18.76,16.74,41,13.32,62.48-3.65,22.87-17.32,43.46-19.41,66.53-1.44,15.93,2.84,32,10,46.31s17.17,27,27.68,39c-4.9-12.81-3.39-27.88-.35-41.26s9-25.92,15.9-37.79c7.53-13,16.31-25.62,20-40.17S475.71,285.08,464.89,274.66Z"/><path class="cls-4" d="M464.89,274.66c-20.33-19.58-15.76-54-31.08-77.7-2.75-4.25-6.26-8.21-10.83-10.38s-10.38-2.26-14.45.76c-4.89,3.62-6.07,10.66-4.63,16.57s5,11.06,8,16.31c10.95,18.76,16.74,41,13.32,62.48-3.65,22.87-17.32,43.46-19.41,66.53-1.44,15.93,2.84,32,10,46.31s17.17,27,27.68,39c-4.9-12.81-3.39-27.88-.35-41.26s9-25.92,15.9-37.79c7.53-13,16.31-25.62,20-40.17S475.71,285.08,464.89,274.66Z"/><path class="cls-4" d="M451.08,250.69c-1,17.1-9.29,33.93-18.54,48.8-9.46,15.23-20.3,30.21-26.37,46.87-.13.95-.26,1.9-.35,2.87-1.44,15.93,2.84,32,10,46.31s17.17,27,27.68,39c-4.9-12.81-3.39-27.88-.35-41.26s9-25.92,15.9-37.79c7.53-13,16.31-25.62,20-40.17s-3.41-30.29-14.23-40.71C458,268,454,259.72,451.08,250.69Z"/><path class="cls-5" d="M460.89,416.67a410.63,410.63,0,0,1-3.72-99.61c1.56-18.49,4.68-37.65,15.41-52.78,7.91-11.17,19.6-19.58,25.82-31.77,11-21.49,2.34-49.34,14.28-70.3,4.3-7.54,12.68-14,21.09-11.89,8.63,2.19,12.82,12.28,12.91,21.19.25,25.47-21.41,46.16-25.75,71.26s9.13,49.58,11.83,74.88c2.32,21.7-3.44,43.68-13,63.28s-22.87,37.14-36.44,54.23C472.62,433.44,462.6,427.34,460.89,416.67Z"/><path class="cls-4" d="M460.89,416.67a410.63,410.63,0,0,1-3.72-99.61c1.56-18.49,4.68-37.65,15.41-52.78,7.91-11.17,19.6-19.58,25.82-31.77,11-21.49,2.34-49.34,14.28-70.3,4.3-7.54,12.68-14,21.09-11.89,8.63,2.19,12.82,12.28,12.91,21.19.25,25.47-21.41,46.16-25.75,71.26s9.13,49.58,11.83,74.88c2.32,21.7-3.44,43.68-13,63.28s-22.87,37.14-36.44,54.23C472.62,433.44,462.6,427.34,460.89,416.67Z"/><path class="cls-4" d="M497.37,234.39c-6.41,11.19-17.29,19.31-24.79,29.89-10.73,15.13-13.85,34.29-15.41,52.78a410.62,410.62,0,0,0,1.23,81.53,257.72,257.72,0,0,0,16,33.94,36.14,36.14,0,0,0,8.94,2.63c3.93-5,7.83-9.94,11.63-15,12.73-22.91,22.82-47.23,25.56-73.13C524.56,308.48,512.08,270.58,497.37,234.39Z"/><path class="cls-6" d="M445.37,433.52c-21.52-8.59-32.17-34.16-30.83-57.3s12-44.54,22.22-65.36S457,268.19,457.06,245c0-26.08-12.75-50.56-15.35-76.5a99.9,99.9,0,0,1,12.05-58.23c3.9-7,9.32-14,17.11-15.76,11.35-2.61,22.41,7.6,25.19,18.91s-.37,23.13-3.31,34.4c-5.23,20-9.9,40.57-8,61.14,2.21,23.76,13,45.73,19.56,68.67,15.76,55.28,5.36,117.43-27.55,164.56C466,439.63,455.7,437.64,445.37,433.52Z"/><path class="cls-7" d="M506.11,305.79a2.47,2.47,0,0,0-3.27,1.22,95.41,95.41,0,0,1-22,30.33c.55-2.22,1.07-4.45,1.51-6.7,5.09-26.16,1.32-52.63-3-75.06-.36-1.86-.74-3.73-1.12-5.6a148,148,0,0,0,9.43-17.55,2.47,2.47,0,0,0-4.5-2c-1.92,4.25-4.08,8.42-6.41,12.47L475.08,235c-3.68-17.16-7.48-34.89-9-52.57a163.55,163.55,0,0,1,0-28.6c7.5-6.7,14.78-13.81,21.65-21.14a2.47,2.47,0,1,0-3.6-3.37c-5.48,5.84-11.23,11.54-17.14,17a100.42,100.42,0,0,1,11.58-34.88,2.47,2.47,0,1,0-4.29-2.44c-10.12,17.86-14.67,40-13.58,65.83a110.34,110.34,0,0,0-12.88-13.59,2.47,2.47,0,0,0-3.28,3.69,106.09,106.09,0,0,1,16.73,18.92l0,0c1.58,17.64,5.32,35.18,9,52.15,1.44,6.71,2.92,13.65,4.25,20.49,2.77,14.27,5.29,30.2,5.37,46.55a124,124,0,0,0-19.38-28.41,2.46,2.46,0,0,0-3.65,3.31,119.76,119.76,0,0,1,22.53,36,2.4,2.4,0,0,0,.16.27,127.45,127.45,0,0,1-2,15.46,140.88,140.88,0,0,1-3.46,13.74,2.49,2.49,0,0,0-.22.75c-2.45,8-5.44,15.91-8.37,23.63-1.61,4.26-3.27,8.65-4.83,13a278.85,278.85,0,0,1-20.72-50.09,2.47,2.47,0,0,0-4.73,1.43,283.94,283.94,0,0,0,23.26,55c-4.78,14.49-9.06,32.34-6.34,50.08a2.48,2.48,0,0,0,2.44,2.1l.38,0a2.47,2.47,0,0,0,2.06-2.81c-2.9-18.9,2.72-38.26,7.93-53,1.65-4.65,3.44-9.37,5.17-13.94,2.93-7.73,5.92-15.63,8.4-23.7a100.39,100.39,0,0,0,28.83-36.8A2.48,2.48,0,0,0,506.11,305.79Z"/><path class="cls-8" d="M492.93,432.25c-10.69.59-21.59,1.66-32.38,2.16-10.79-.5-21.69-1.57-32.38-2.16a127.72,127.72,0,0,0,18.51,76.58h27.74A127.72,127.72,0,0,0,492.93,432.25Z"/><path class="cls-7" d="M492.93,432.25c-10.69.59-21.59,1.66-32.38,2.16-10.79-.5-21.69-1.57-32.38-2.16a125.68,125.68,0,0,0,.48,24.53l64.64-17.36C493.24,437,493.12,434.63,492.93,432.25Z"/><rect class="cls-8" x="422.44" y="424.8" width="76.22" height="13.18"/><rect class="cls-9" x="422.44" y="424.8" width="76.22" height="13.18"/><rect class="cls-2" x="117.95" y="99.24" width="316.84" height="409.8" rx="18.02"/><g class="cls-10"><path class="cls-11" d="M434.79,196.39,127.43,503.75A24.6,24.6,0,0,0,142.68,509h41.53L434.79,258.46Z"/><path class="cls-11" d="M118,482.78,434.79,165.94V124a24.74,24.74,0,0,0-24.74-24.73H377.34L118,358.63Z"/></g><path class="cls-11" d="M410.05,105.41H344.71v7.13a8.34,8.34,0,0,1-8.33,8.33h-120a8.34,8.34,0,0,1-8.33-8.33v-7.13H142.68A18.59,18.59,0,0,0,124.12,124V484.3a18.58,18.58,0,0,0,18.56,18.56H410.05a18.57,18.57,0,0,0,18.56-18.56V124A18.58,18.58,0,0,0,410.05,105.41Z"/><path class="cls-4" d="M279.46,110.46a3.1,3.1,0,1,1-3.09-3.09A3.09,3.09,0,0,1,279.46,110.46Z"/><path class="cls-4" d="M248.35,110.46a3.1,3.1,0,1,1-3.09-3.09A3.09,3.09,0,0,1,248.35,110.46Z"/><path class="cls-4" d="M310.58,110.46a3.1,3.1,0,1,1-3.1-3.09A3.1,3.1,0,0,1,310.58,110.46Z"/><g class="cls-10"><path d="M177.45,209.41H155.94a16,16,0,0,1-16-16V172a16,16,0,0,1,16-16h21.51a16,16,0,0,1,16,16v21.5A16,16,0,0,1,177.45,209.41ZM155.94,167.1A4.85,4.85,0,0,0,151.1,172v21.5a4.85,4.85,0,0,0,4.84,4.85h21.51a4.85,4.85,0,0,0,4.84-4.85V172a4.85,4.85,0,0,0-4.84-4.85Z"/></g><path class="cls-7" d="M399.11,168.42H210.53a4.87,4.87,0,0,1-4.87-4.87h0a4.87,4.87,0,0,1,4.87-4.87H399.11a4.87,4.87,0,0,1,4.87,4.87h0A4.87,4.87,0,0,1,399.11,168.42Z"/><rect class="cls-7" x="205.22" y="178.17" width="198.33" height="9.75" rx="3.55"/><path class="cls-7" d="M302,207.41H210.53a4.87,4.87,0,0,1-4.87-4.87h0a4.88,4.88,0,0,1,4.87-4.88H302a4.88,4.88,0,0,1,4.87,4.88h0A4.87,4.87,0,0,1,302,207.41Z"/><g class="cls-10"><path d="M177.45,288.37H155.94a16,16,0,0,1-16-16v-21.5a16,16,0,0,1,16-16h21.51a16,16,0,0,1,16,16v21.5A16,16,0,0,1,177.45,288.37Zm-21.51-42.31a4.85,4.85,0,0,0-4.84,4.85v21.5a4.85,4.85,0,0,0,4.84,4.85h21.51a4.85,4.85,0,0,0,4.84-4.85v-21.5a4.85,4.85,0,0,0-4.84-4.85Z"/></g><path class="cls-7" d="M399.11,247.38H210.53a4.87,4.87,0,0,1-4.87-4.87h0a4.87,4.87,0,0,1,4.87-4.87H399.11a4.87,4.87,0,0,1,4.87,4.87h0A4.87,4.87,0,0,1,399.11,247.38Z"/><path class="cls-7" d="M398.67,266.88H210.1a4.87,4.87,0,0,1-4.88-4.88h0a4.87,4.87,0,0,1,4.88-4.87H398.67a4.87,4.87,0,0,1,4.88,4.87h0A4.87,4.87,0,0,1,398.67,266.88Z"/><rect class="cls-7" x="205.66" y="276.62" width="101.16" height="9.75" rx="3.55"/><g class="cls-10"><path d="M177.45,367.33H155.94a16,16,0,0,1-16-16v-21.5a16,16,0,0,1,16-16h21.51a16,16,0,0,1,16,16v21.5A16,16,0,0,1,177.45,367.33ZM155.94,325a4.85,4.85,0,0,0-4.84,4.85v21.5a4.85,4.85,0,0,0,4.84,4.85h21.51a4.85,4.85,0,0,0,4.84-4.85v-21.5a4.85,4.85,0,0,0-4.84-4.85Z"/></g><path class="cls-7" d="M399.11,326.34H210.53a4.87,4.87,0,0,1-4.87-4.87h0a4.87,4.87,0,0,1,4.87-4.87H399.11a4.87,4.87,0,0,1,4.87,4.87h0A4.87,4.87,0,0,1,399.11,326.34Z"/><path class="cls-7" d="M398.67,345.84H210.1a4.87,4.87,0,0,1-4.88-4.88h0a4.87,4.87,0,0,1,4.88-4.87H398.67a4.87,4.87,0,0,1,4.88,4.87h0A4.87,4.87,0,0,1,398.67,345.84Z"/><path class="cls-7" d="M302,365.33H210.53a4.87,4.87,0,0,1-4.87-4.87h0a4.88,4.88,0,0,1,4.87-4.88H302a4.88,4.88,0,0,1,4.87,4.88h0A4.87,4.87,0,0,1,302,365.33Z"/><g class="cls-10"><path d="M177.45,446.29H155.94a16,16,0,0,1-16-16v-21.5a16,16,0,0,1,16-16h21.51a16,16,0,0,1,16,16v21.5A16,16,0,0,1,177.45,446.29ZM155.94,404a4.85,4.85,0,0,0-4.84,4.85v21.5a4.85,4.85,0,0,0,4.84,4.85h21.51a4.85,4.85,0,0,0,4.84-4.85v-21.5a4.85,4.85,0,0,0-4.84-4.85Z"/></g><path class="cls-7" d="M399.11,405.3H210.53a4.87,4.87,0,0,1-4.87-4.87h0a4.87,4.87,0,0,1,4.87-4.87H399.11a4.87,4.87,0,0,1,4.87,4.87h0A4.87,4.87,0,0,1,399.11,405.3Z"/><rect class="cls-7" x="205.22" y="415.05" width="198.33" height="9.75" rx="3.55"/><rect class="cls-7" x="205.66" y="434.54" width="101.16" height="9.75" rx="3.55"/><circle class="cls-12" cx="145.06" cy="116.57" r="3.01"/><circle class="cls-12" cx="155.88" cy="116.57" r="3.01"/><circle class="cls-12" cx="166.69" cy="116.57" r="3.01"/><circle class="cls-12" cx="177.51" cy="116.57" r="3.01"/><circle class="cls-12" cx="188.33" cy="116.57" r="3.01"/><rect class="cls-12" x="355.02" y="111.45" width="17.58" height="9.71"/><rect class="cls-12" x="372.6" y="113.69" width="2.45" height="5.24" transform="translate(747.65 232.62) rotate(180)"/><text class="cls-13" transform="translate(384.13 119.58)">100%</text><path class="cls-14" d="M204.84,222.28c-12.32,11.2-25.12,23.83-36.35,36.11a95.25,95.25,0,0,1-9.55-14.79l-14.78,3.69c7.39,9.24,15.61,18,25,25.19C181.09,256.36,192.92,238.41,204.84,222.28Z"/><path class="cls-14" d="M204.84,301.24c-12.32,11.2-25.12,23.83-36.35,36.11a95.25,95.25,0,0,1-9.55-14.79l-14.78,3.69c7.39,9.24,15.61,18,25,25.19C181.09,335.32,192.92,317.37,204.84,301.24Z"/><path class="cls-14" d="M204.84,380.2c-12.32,11.2-25.12,23.83-36.35,36.11a95.25,95.25,0,0,1-9.55-14.79l-14.78,3.69c7.39,9.24,15.61,18,25,25.19C181.09,414.28,192.92,396.33,204.84,380.2Z"/><path class="cls-14" d="M191.89,116.57c-8.4,14.37-16.82,30.26-23.85,45.35a96.37,96.37,0,0,1-13.55-11.24l-13,7.95c9.82,6.59,20.29,12.5,31.42,16.53C179.45,156.2,185.35,135.52,191.89,116.57Z"/><polygon class="cls-12" points="40.23 490.4 45.88 476.94 56.61 483.18 47.69 494.74 40.23 490.4"/><polygon class="cls-12" points="104.81 499.42 102.16 482.48 119.55 482.48 116.9 499.42 104.81 499.42"/><path class="cls-12" d="M42.57,333.36c1.66,4.67,3.33,9.83,1.54,14.45,1.3,2.46-.42,6.32-2.65,8a6.08,6.08,0,0,1-7.65-.54,9.5,9.5,0,0,1-2.34-5.89A23.52,23.52,0,0,1,36,333c-.06-1.46.71-3.09,2.17-3.17S42.08,332,42.57,333.36Z"/><path class="cls-14" d="M89.73,215.54c-2.16-3.09-1.94-7.39-.31-10.79s4.49-6.05,7.44-8.4,6.09-4.51,8.63-7.31a24.68,24.68,0,0,0,6.16-19c-.37-3.38-1.6-6.88-4.31-8.95-4.24-3.21-10.64-1.7-14.58,1.88s-6.05,8.67-8.25,13.51-4.8,9.82-9.26,12.7c-2.75,1.78-6,2.62-8.77,4.38a15.67,15.67,0,0,0-6,18.25,9.06,9.06,0,0,0-1.66,9.74,14.91,14.91,0,0,0,7.26,7.16,23.1,23.1,0,0,0,19.21.64c-1.22-3.08-.57-7.63,2-9.78C88.46,218.54,89.84,217.11,89.73,215.54Z"/><path class="cls-12" d="M150.49,175.28a6.74,6.74,0,0,1,1.67-8.78c-.66-3.2,1.66-7.35,4.9-7.78,2.06-.28,4.41.8,5,2.79a6.44,6.44,0,0,1-.22,3.6,30.2,30.2,0,0,1-7.56,13.06C153.1,177.41,151.26,176.48,150.49,175.28Z"/><path class="cls-8" d="M44,338.08a103.12,103.12,0,0,1,30.33-60.21c4.28-4.14,8.94-7.91,12.83-12.41s7-9.92,7.6-15.85A13.42,13.42,0,0,0,93,241a8.06,8.06,0,0,0-7.56-3.78c-9.12,1.28-16.8,8.05-22.74,15.1a121.55,121.55,0,0,0-28.24,80A19.86,19.86,0,0,0,44,338.08Z"/><path class="cls-4" d="M44,338.08a103.12,103.12,0,0,1,30.33-60.21c4.28-4.14,8.94-7.91,12.83-12.41s7-9.92,7.6-15.85A13.42,13.42,0,0,0,93,241a8.06,8.06,0,0,0-7.56-3.78c-9.12,1.28-16.8,8.05-22.74,15.1a121.55,121.55,0,0,0-28.24,80A19.86,19.86,0,0,0,44,338.08Z"/><path class="cls-15" d="M102.07,376A181,181,0,0,1,57.24,481.69a26.78,26.78,0,0,1-10.58-7.05c4.4-24,21.8-44.87,23.72-69.19,1-12.95-2.37-25.79-4-38.68S61,334.5,68.56,324c11.32,5.92,25.12,20.05,31.7,31A34.44,34.44,0,0,1,105,366.66C105.75,370.83,102.39,371.82,102.07,376Z"/><path class="cls-9" d="M102.07,376A181,181,0,0,1,57.24,481.69a26.78,26.78,0,0,1-10.58-7.05c4.4-24,21.8-44.87,23.72-69.19,1-12.95-2.37-25.79-4-38.68S61,334.5,68.56,324c11.32,5.92,25.12,20.05,31.7,31A34.44,34.44,0,0,1,105,366.66C105.75,370.83,102.39,371.82,102.07,376Z"/><path class="cls-4" d="M105,366.66A34.44,34.44,0,0,0,100.26,355c-6.43-10.71-19.76-24.44-30.94-30.58-.52.23-1,.48-1.53.73-6.08,10-3.44,26.59-1.78,38.87.36.65.72,1.29,1.09,1.92,6.24,10.68,14.22,20.31,19.8,31.35,3.5,6.92,6,14.69,6.25,22.36A178.27,178.27,0,0,0,102.07,376C102.39,371.82,105.75,370.83,105,366.66Z"/><path class="cls-15" d="M108.55,323.82a486.88,486.88,0,0,1,11.81,162.7h-17.8c-5-19.9-9.43-41.9-9.24-62.4.12-12.7,2.21-25.65-1-37.93-2.87-10.93-9.69-20.32-15.36-30.1s-10.38-21-8.38-32.13A84.49,84.49,0,0,1,108.55,323.82Z"/><path class="cls-4" d="M91.45,321.57c5.87,2.71,12.48,5.41,18.61,8.69-.49-2.15-1-4.3-1.51-6.44a84.49,84.49,0,0,0-40,.14c-2,11.13,2.72,22.34,8.38,32.13s12.49,19.17,15.36,30.1c3.23,12.28,1.14,25.23,1,37.93-.19,20.5,4.29,42.5,9.24,62.4h8.3A361.83,361.83,0,0,0,91.45,321.57Z"/><path class="cls-4" d="M110.76,333.42c-.24-1.05-.45-2.11-.7-3.16s-.43-1.83-.64-2.75c-4.17-1.26-7.41-3.22-12.42-4.43a61.87,61.87,0,0,0-9-1.58,85.09,85.09,0,0,0-11.8,1,26,26,0,0,0-9.74,5.44c-.16.39-.34.78-.49,1.19l0,.09c-.24.68-.45,1.38-.64,2.1,0,0,0,.1,0,.16-.19.71-.35,1.44-.49,2.19a.43.43,0,0,1,0,.11A47.29,47.29,0,0,0,64,341c0,.05,0,.11,0,.16,0,.8,0,1.61,0,2.42v.22c0,.81,0,1.62.08,2.44a.61.61,0,0,0,0,.14c.08,1.69.2,3.38.36,5.05,0,.05,0,.1,0,.15.07.8.16,1.59.25,2.39l0,.3.27,2.28c0,.12,0,.23,0,.35.09.74.18,1.47.28,2.19,0,.14,0,.28.05.42l.18,1.31A71.94,71.94,0,0,0,110.76,333.42Z"/><path class="cls-8" d="M61.07,344.44c15.19,4.42,37.29-8.1,52.16-13.52-1.19-15.71-4.74-32.17-5.92-47.88-1.29-17-3-35.18-13.73-48.45-4.35-5.39-14.3-2.29-19.53,2.24S66,248,63.81,254.6C55.45,280.37,53.8,318.34,61.07,344.44Z"/><path class="cls-4" d="M107.31,283c-1.13-15-2.61-30.86-10.27-43.5a36.83,36.83,0,0,0-9.23,3.86C81.93,246.77,77,252.17,71,255.3a132.08,132.08,0,0,0,36.37,28.48C107.36,283.53,107.33,283.28,107.31,283Z"/><path class="cls-12" d="M81,214.8A134.18,134.18,0,0,0,79,236c3.47.95,7.2,2.25,10.73,1.55a115.8,115.8,0,0,0,1-21.94A21.36,21.36,0,0,0,81,214.8Z"/><path class="cls-4" d="M79.48,226.67a40.55,40.55,0,0,0,10.86,5.55,118.7,118.7,0,0,0,.43-15.31,9.64,9.64,0,0,0-1.35-1.65l-.11-.09A21.81,21.81,0,0,0,81,214.8C80.32,218.73,79.82,222.7,79.48,226.67Z"/><path class="cls-12" d="M81.33,201.05A37.09,37.09,0,0,1,98.44,221a14.52,14.52,0,0,1-8.52,6.87,17.44,17.44,0,0,1-15.6-2.54,14.39,14.39,0,0,1-5.26-14.58C70.45,205.44,76.51,198.45,81.33,201.05Z"/><path class="cls-8" d="M156.77,175.86c-4.25,16.27-9.43,32.43-17.49,47.18s-19.18,28.14-33.49,37c-4.46,2.75-9.3,5.07-14.49,5.8s-10.79-.3-14.83-3.64S67.61,251.31,70.64,247c3.79-5.36,10.53-7.53,16.62-9.95a110.06,110.06,0,0,0,62.09-64Z"/><path class="cls-14" d="M89.44,203.69a2.7,2.7,0,0,1-.65,2.11A6.84,6.84,0,0,1,87,207.22,24.68,24.68,0,0,1,75.4,210.7a8.69,8.69,0,0,1,1.11,7.07c1.3,1,2.27,2.39,3.58,3.43A25.74,25.74,0,0,0,76,219.59a2.29,2.29,0,0,0-2.27,0,1.54,1.54,0,0,0-.35,1.64,3.54,3.54,0,0,0,1,1.42A10.29,10.29,0,0,0,79,225.12a11.76,11.76,0,0,1,.09,5.15c-4.73-1.16-10.53-3.38-13-7.57-1.67-2.84-1.71-6.32-1.44-9.6.38-4.71,1.35-9.55,4.2-13.31s8-6.1,12.43-4.49C84.81,196.57,88.83,200,89.44,203.69Z"/><rect class="cls-15" x="99.11" y="482.48" width="23.48" height="8.09" rx="2.22"/><rect class="cls-16" x="99.11" y="482.48" width="23.48" height="8.09" rx="2.22"/><rect class="cls-15" x="40.5" y="474.39" width="23.48" height="8.08" rx="2.22" transform="translate(251.1 40.16) rotate(30.64)"/><rect class="cls-16" x="40.5" y="474.39" width="23.48" height="8.08" rx="2.22" transform="translate(251.1 40.16) rotate(30.64)"/><polygon class="cls-15" points="104.81 499.42 99.11 509.04 135.02 509.04 116.9 499.42 104.81 499.42"/><polygon class="cls-15" points="52.06 501.46 47.69 494.74 40.23 490.4 31.14 494.63 48.44 504.7 50.1 505.91 60.73 506.98 52.06 501.46"/><path class="cls-4" d="M333.92,494.74H218.82A3.79,3.79,0,0,1,215,491h0a3.8,3.8,0,0,1,3.79-3.8h115.1a3.8,3.8,0,0,1,3.79,3.8h0A3.79,3.79,0,0,1,333.92,494.74Z"/><g class="cls-17"><circle cx="523.06" cy="104.29" r="5.05"/><path d="M218.92,43.53a4.34,4.34,0,1,1-4.34-4.34A4.33,4.33,0,0,1,218.92,43.53Z"/><path d="M86.26,25.86a2.81,2.81,0,1,1-2.81-2.81A2.81,2.81,0,0,1,86.26,25.86Z"/><path d="M83.15,124.23a3.07,3.07,0,1,1-3.07-3.07A3.08,3.08,0,0,1,83.15,124.23Z"/><path d="M12,188.7a6,6,0,1,1-6-6A6,6,0,0,1,12,188.7Z"/><path d="M373.82,43.32a3.14,3.14,0,1,1-3.13-3.14A3.14,3.14,0,0,1,373.82,43.32Z"/><path d="M474.32,45.49h0a7.93,7.93,0,0,0,5.12,5.12h0a7.94,7.94,0,0,0-5.12,5.13h0a8,8,0,0,0-5.12-5.13h0a8,8,0,0,0,5.12-5.12Z"/><path d="M543.63,460.44h0a8,8,0,0,0,5.12,5.13h0a8,8,0,0,0-5.12,5.12h0a7.93,7.93,0,0,0-5.12-5.12h0a8,8,0,0,0,5.12-5.13Z"/><path d="M559.54,224.23h0a7.94,7.94,0,0,0,5.12,5.13h0a7.93,7.93,0,0,0-5.12,5.12h0a7.94,7.94,0,0,0-5.13-5.12h0a8,8,0,0,0,5.13-5.13Z"/><path d="M414.43,73h0a7.93,7.93,0,0,0,5.12,5.12h0a7.93,7.93,0,0,0-5.12,5.12h0a7.94,7.94,0,0,0-5.13-5.12h0A7.94,7.94,0,0,0,414.43,73Z"/><path d="M279.46.58h0a7.94,7.94,0,0,0,5.13,5.12h0a8,8,0,0,0-5.13,5.13h0a7.94,7.94,0,0,0-5.12-5.13h0A7.93,7.93,0,0,0,279.46.58Z"/><path d="M12,52.65h0a8,8,0,0,0,5.12,5.12h0A8,8,0,0,0,12,62.9h0a7.94,7.94,0,0,0-5.12-5.13h0A7.93,7.93,0,0,0,12,52.65Z"/><path d="M155.55,38.76h0a7.93,7.93,0,0,0,5.12,5.12h0A7.94,7.94,0,0,0,155.55,49h0a8,8,0,0,0-5.13-5.13h0a7.94,7.94,0,0,0,5.13-5.12Z"/><path d="M5.12,294.34h0a8,8,0,0,0,5.12,5.12h0a8,8,0,0,0-5.12,5.12h0A7.93,7.93,0,0,0,0,299.46H0a8,8,0,0,0,5.12-5.12Z"/></g></g></g></g></svg>